<?xml version="1.0" encoding="UTF-8"?>
<svg width="21px" height="25px" viewBox="0 0 21 25" version="1.1" xmlns="http://www.w3.org/2000/svg" xmlns:xlink="http://www.w3.org/1999/xlink">
    <!-- Generator: Sketch 61.2 (89653) - https://sketch.com -->
    <title>call [#192] copy 8</title>
    <desc>Created with Sketch.</desc>
    <g id="Page-1" stroke="none" stroke-width="1" fill="none" fill-rule="evenodd">
        <g id="00" transform="translate(-698.000000, -2556.000000)" stroke="#006A61" stroke-width="1.86299999">
            <g id="Group-27" transform="translate(428.000000, 2557.000000)">
                <g id="Group-12" transform="translate(269.127469, 0.000000)">
                    <path d="M21.3169828,19.2448184 C20.6976703,21.1268326 18.2712497,22.0658334 16.5377099,21.9093332 C14.1701439,21.695316 11.5939112,20.4393022 9.63832848,19.0562157 C6.76380917,17.0230517 4.07120453,13.8783356 2.5021905,10.541004 C1.39331358,8.1828013 1.14451852,5.28286744 2.79378902,3.1333316 C3.40373821,2.33879253 4.06317889,1.91477083 5.05434632,1.86527934 C6.4294072,1.79839895 6.62202274,2.58491238 7.09419831,3.81016118 C7.44598918,4.72642257 7.91548954,5.66141047 8.17766069,6.61111206 C8.66856277,8.38344248 6.95241188,8.45701091 6.73571941,9.90564023 C6.60062101,10.8192264 7.70816032,12.0444752 8.20842567,12.6958902 C9.18889223,13.9719682 10.3673248,15.0728194 11.696907,15.910162 C12.4580059,16.3903632 13.6872675,17.2557955 14.5593878,16.7782695 C15.9023461,16.0425851 15.7752734,13.778015 17.6532748,14.5444643 C18.6257157,14.9403962 19.5673917,15.5115548 20.4956915,16.0118201 C21.9309448,16.7836199 21.8640644,17.5835094 21.3169828,19.2448184 C20.9076748,20.4861185 21.7262908,18.0035183 21.3169828,19.2448184" id="call-[#192]-copy-8" transform="translate(11.645601, 11.893740) rotate(10.000000) translate(-11.645601, -11.893740) "></path>
                </g>
            </g>
        </g>
    </g>
</svg>