<?xml version="1.0" encoding="UTF-8"?>
<svg width="24px" height="23px" viewBox="0 0 24 23" version="1.1" xmlns="http://www.w3.org/2000/svg" xmlns:xlink="http://www.w3.org/1999/xlink">
    <!-- Generator: Sketch 61.2 (89653) - https://sketch.com -->
    <title>Group 26</title>
    <desc>Created with Sketch.</desc>
    <g id="Page-1" stroke="none" stroke-width="1" fill="none" fill-rule="evenodd" stroke-linecap="round">
        <g id="00" transform="translate(-560.000000, -2557.000000)" stroke="#006A61" stroke-width="1.86299999">
            <g id="Group-27" transform="translate(428.000000, 2557.000000)">
                <g id="Group-26" transform="translate(133.860003, 0.380000)">
                    <path d="M13.7103054,2.48054415 C9.24703803,-1.42055364 2.32623385,0.786714666 0.789885628,6.57249597 C0.14474344,9.00069856 0.76714023,10.1281895 0.76714023,11.950638 C0.76714023,13.8239117 0,16.5373581 0,16.5373581 C0,16.8692782 0.294656288,17.1929002 0.657548769,17.0985104 C1.95507032,16.7593296 4.01869821,16.0882288 6.48657386,16.7582924 C14.7855424,19.008088 20.1110671,8.07443418 13.7103054,2.48054415" id="messages_chat-[#1557]-copy-5" fill="#FFFFFF" stroke-linejoin="round"></path>
                    <path d="M19.4862205,8.52872988 C19.9761628,9.28978043 20.3381114,10.1349002 20.5328908,11.0409696 C21.4158258,15.1360332 19.1743702,14.4431501 20.7903273,20.6666509 C20.8854445,21.0307257 20.5628734,21.3273793 20.2320312,21.3273793 C20.1782694,21.3273793 20.1224398,21.3201185 20.0655763,21.305597 C13.5045629,19.6584438 13.9449965,21.5088981 10.2995296,20.5338829 C9.68627967,20.3701243 9.10370204,20.1332816 8.55836845,19.8368975" id="Path"></path>
                </g>
            </g>
        </g>
    </g>
</svg>