<?xml version="1.0" encoding="UTF-8"?>
<svg width="24px" height="18px" viewBox="0 0 24 18" version="1.1" xmlns="http://www.w3.org/2000/svg" xmlns:xlink="http://www.w3.org/1999/xlink">
    <!-- Generator: Sketch 61.2 (89653) - https://sketch.com -->
    <title>Combined Shape</title>
    <desc>Created with Sketch.</desc>
    <g id="Page-1" stroke="none" stroke-width="1" fill="none" fill-rule="evenodd">
        <g id="00" transform="translate(-428.000000, -2560.000000)" stroke="#006A61" stroke-width="1.86299999">
            <g id="Group-27" transform="translate(428.000000, 2557.000000)">
                <g id="Group-8" transform="translate(0.128415, 0.000000)">
                    <path d="M13.4776635,4.20961471 L4.11440846,4.20961471 C2.41264042,4.20961471 1.03308485,5.58917028 1.03308485,7.29093832 L1.03308485,16.6541934 C1.03308485,18.3559614 2.41264042,19.735517 4.11440846,19.735517 L13.4776635,19.735517 C15.1794316,19.735517 16.5589871,18.3559614 16.5589883,16.6556423 L16.5555718,14.4591983 L17.9553609,15.2674271 L21.5870875,17.3643616 C21.648822,17.4000024 21.7188503,17.4187657 21.7901344,17.4187657 C22.0144216,17.4187657 22.1962422,17.236945 22.1962422,17.0126578 L22.1962422,6.93247387 C22.1962422,6.86118981 22.177479,6.79116149 22.1418382,6.72942697 C22.0296985,6.53518633 21.7813281,6.46863037 21.5868126,6.58092868 L16.5555647,9.48330216 L16.558086,7.86766106 L16.5589871,7.29093832 C16.5589871,5.58917028 15.1794316,4.20961471 13.4776635,4.20961471 Z" id="Combined-Shape"></path>
                </g>
            </g>
        </g>
    </g>
</svg>